<?xml version="1.0" encoding="UTF-8"?>
<svg xmlns="http://www.w3.org/2000/svg" xmlns:xlink="http://www.w3.org/1999/xlink" width="335" height="112" overflow="hidden">
  <defs>
    <clipPath id="clip0">
      <rect x="952" y="5" width="335" height="112"></rect>
    </clipPath>
  </defs>
  <g clip-path="url(#clip0)" transform="translate(-952 -5)">
    <path d="M288.709 40.235C288.479 39.281 288.114 38.4104 287.616 37.6231 286.687 36.1568 285.411 35.0228 283.786 34.221 282.162 33.4192 280.316 33.0183 278.248 33.0183 276.117 33.0183 274.25 33.4562 272.646 34.3318 271.043 35.2074 269.803 36.4469 268.927 38.0504 268.052 39.6539 267.614 41.5634 267.614 43.7789L256.442 43.7789C256.442 39.6644 257.381 36.0882 259.259 33.05 261.137 30.0118 263.727 27.6592 267.029 25.9924 270.33 24.3256 274.123 23.4922 278.406 23.4922 282.753 23.4922 286.571 24.3045 289.863 25.9291 293.154 27.5537 295.713 29.7797 297.538 32.6069 297.924 33.2056 298.269 33.8222 298.574 34.4568 296.076 35.9466 292.684 37.9466 288.709 40.235Z" fill="#F2AF0D" fill-rule="evenodd" transform="matrix(1 0 0 1.00299 952 5)"></path>
    <path d="M298.574 34.4568C299.708 36.8193 300.275 39.4306 300.275 42.2915 300.275 44.7177 299.811 47.1017 298.883 49.4438 297.954 51.7858 296.324 54.3809 293.993 57.2295 291.661 60.0778 288.397 63.5275 284.198 67.5784L273.026 78.9401 273.026 79.3835 301.256 79.3835 301.256 89.1945 256.822 89.1945 256.822 80.7127 279.324 58.6537C281.476 56.4803 283.269 54.5499 284.704 52.8619 286.139 51.1739 287.215 49.5387 287.932 47.9564 288.65 46.3741 289.008 44.686 289.008 42.8927 289.008 41.9446 288.909 41.0587 288.709 40.235 292.684 37.9466 296.076 35.9466 298.574 34.4568Z" fill="#E6611A" fill-rule="evenodd" transform="matrix(1 0 0 1.00299 952 5)"></path>
    <path d="M233.596 37.6707 233.089 37.6707 214.575 67.0089 214.575 67.5152 232.174 67.5152C231.408 67.7214 230.673 67.9004 229.971 68.05 221.583 69.8341 212.643 68.1379 203.872 65.7411L230.051 24.3783 244.673 24.3783 244.673 62.9986C240.639 64.7123 236.879 66.1316 233.596 67.1109L233.596 37.6707Z" fill="#F2AF0D" fill-rule="evenodd" transform="matrix(1 0 0 1.00299 952 5)"></path>
    <path d="M233.469 77.168 202.548 77.168 202.548 67.8315 203.872 65.7411C212.643 68.1379 221.583 69.8341 229.971 68.05 230.673 67.9004 231.408 67.7214 232.174 67.5152L233.596 67.5152 233.596 67.1109C236.879 66.1316 240.639 64.7123 244.673 62.9986L244.673 67.5152 252.964 67.5152 252.964 77.168 244.673 77.168 244.673 89.1945 233.469 89.1945 233.469 77.168Z" fill="#E6611A" fill-rule="evenodd" transform="matrix(1 0 0 1.00299 952 5)"></path>
    <path d="M151.915 64.7641C151.936 59.4446 152.827 54.9445 154.589 51.2636 156.372 47.5398 158.783 44.7229 161.821 42.8134 164.859 40.9042 168.246 39.9495 171.98 39.9495 174.828 39.9495 177.17 40.4293 179.006 41.3892 180.842 42.3492 182.297 43.4994 183.373 44.839 184.45 46.1786 185.283 47.4394 185.874 48.6212L186.348 48.6212 186.348 24.3783 197.837 24.3783 197.837 64.0044C193.891 62.8322 190.015 61.6474 186.277 60.7139 186.059 59.2581 185.719 57.9174 185.256 56.6913 184.381 54.3705 183.094 52.5667 181.395 51.2796 179.697 49.9924 177.613 49.3489 175.145 49.3489 172.592 49.3489 170.461 50.0136 168.752 51.3428 167.043 52.672 165.756 54.5075 164.891 56.8495 164.469 57.9904 164.15 59.2116 163.934 60.5125 159.896 61.6642 155.884 63.267 151.915 64.7641Z" fill="#29AFEA" fill-rule="evenodd" transform="matrix(1 0 0 1.00299 952 5)"></path>
    <path d="M197.837 64.0044 197.837 89.1945 186.57 89.1945 186.57 81.5353 185.874 81.5353C185.283 82.7171 184.428 83.967 183.31 85.2858 182.192 86.6046 180.715 87.7279 178.879 88.6563 177.044 89.5846 174.733 90.0487 171.948 90.0487 168.129 90.0487 164.711 89.0679 161.694 87.1056 158.677 85.1432 156.293 82.295 154.541 78.5605 152.791 74.826 151.915 70.2897 151.915 64.9517 151.915 64.8891 151.915 64.8266 151.915 64.7641 155.884 63.267 159.896 61.6642 163.934 60.5125 163.707 61.8823 163.593 63.3411 163.593 64.8884 163.593 67.9265 164.031 70.6325 164.906 73.0062 165.782 75.3798 167.08 77.2469 168.799 78.6081 170.519 79.969 172.634 80.6494 175.145 80.6494 177.571 80.6494 179.639 79.9898 181.348 78.6714 183.057 77.3526 184.355 75.5116 185.24 73.1487 186.127 70.7855 186.57 68.0322 186.57 64.8884 186.57 63.4054 186.473 62.0141 186.277 60.7139 190.015 61.6474 193.891 62.8322 197.837 64.0044Z" fill="#0096E3" fill-rule="evenodd" transform="matrix(1 0 0 1.00299 952 5)"></path>
    <path d="M136.917 68.8265 136.917 24.3783 148.374 24.3783 148.374 66.0616C144.502 67.4213 140.678 68.519 136.917 68.8265Z" fill="#29AFEA" fill-rule="evenodd" transform="matrix(1 0 0 1.00299 952 5)"></path>
    <path d="M148.374 66.0616 148.374 89.1945 136.917 89.1945 136.917 68.8265C140.678 68.519 144.502 67.4213 148.374 66.0616Z" fill="#0096E3" fill-rule="evenodd" transform="matrix(1 0 0 1.00299 952 5)"></path>
    <path d="M119.926 65.1955 119.926 40.5823 131.383 40.5823 131.383 68.6475C127.632 68.0962 123.77 66.7473 119.926 65.1955Z" fill="#29AFEA" fill-rule="evenodd" transform="matrix(1 0 0 1.00299 952 5)"></path>
    <path d="M125.686 33.683C123.871 33.683 122.31 33.0764 121.002 31.8632 119.694 30.65 119.04 29.1889 119.04 27.4799 119.04 25.7498 119.694 24.2781 121.002 23.0649 122.31 21.8517 123.871 21.2451 125.686 21.2451 127.521 21.2451 129.088 21.8517 130.386 23.0649 131.683 24.2781 132.332 25.7498 132.332 27.4799 132.332 29.1889 131.683 30.65 130.386 31.8632 129.088 33.0764 127.521 33.683 125.686 33.683Z" fill="#29AFEA" fill-rule="evenodd" transform="matrix(1 0 0 1.00299 952 5)"></path>
    <path d="M131.383 68.6475 131.383 89.1945 119.926 89.1945 119.926 65.1955C123.77 66.7473 127.632 68.0962 131.383 68.6475Z" fill="#0096E3" fill-rule="evenodd" transform="matrix(1 0 0 1.00299 952 5)"></path>
    <path d="M71.9506 65.7408 71.9506 40.5823 83.4072 40.5823 83.4072 61.4282C78.8359 62.9409 74.5658 64.6483 71.9506 65.7408Z" fill="#29AFEA" fill-rule="evenodd" transform="matrix(1 0 0 1.00299 952 5)"></path>
    <path d="M102.934 58.7932 102.934 40.5823 114.391 40.5823 114.391 62.8754C110.435 61.1989 106.566 59.6136 102.934 58.7932Z" fill="#29AFEA" fill-rule="evenodd" transform="matrix(1 0 0 1.00299 952 5)"></path>
    <path d="M114.391 62.8754 114.391 89.1945 103.283 89.1945 103.283 80.5545 102.776 80.5545C101.679 83.2762 99.8802 85.5021 97.38 87.2321 94.8798 88.9622 91.8045 89.8273 88.1545 89.8273 84.9687 89.8273 82.1573 89.1152 79.7203 87.6911 77.2834 86.267 75.3791 84.1885 74.0078 81.4564 72.6362 78.7239 71.9506 75.4167 71.9506 71.5344L71.9506 65.7408C74.5658 64.6483 78.8359 62.9409 83.4072 61.4282L83.4072 69.7623C83.4072 72.8428 84.2514 75.2901 85.9394 77.1047 87.6271 78.9193 89.8425 79.8264 92.5854 79.8264 94.2735 79.8264 95.9083 79.4151 97.491 78.5921 99.0733 77.7691 100.376 76.5401 101.399 74.9053 102.423 73.2697 102.934 71.218 102.934 68.7494L102.934 58.7932C106.566 59.6136 110.435 61.1989 114.391 62.8754Z" fill="#0096E3" fill-rule="evenodd" transform="matrix(1 0 0 1.00299 952 5)"></path>
    <path d="M66.4614 77.5596 66.4614 89.4491 54.197 89.4491 54.197 77.5596 66.4614 77.5596ZM54.1963 99.0003C58.7787 97.6599 60.8963 94.253 61.0932 89.4532L66.4208 89.4625C66.4257 100.354 56.4363 103.351 54.1877 103.374L54.1963 99.0003Z" fill="#0096E3" fill-rule="evenodd" transform="matrix(1 0 0 1.00299 952 5)"></path>
    <path d="M23.5075 75.4736 23.5065 65.6983C27.34 67.3078 31.3026 68.5462 35.4106 69.3662L35.4141 75.4238C35.7259 76.6737 36.3924 77.4323 37.5368 77.5387L50.4804 77.5387 50.4804 89.4822 37.5368 89.4822C30.5422 89.4722 23.4721 83.6707 23.5075 75.4736Z" fill="#0096E3" fill-rule="evenodd" transform="matrix(1 0 0 1.00299 952 5)"></path>
    <path d="M35.4886 54.9768 35.4617 74.1113 35.4563 69.3781C31.3325 68.5596 27.3547 67.3246 23.5065 65.7188L23.5072 55.001C23.6206 46.6938 29.5779 40.6831 37.4035 40.6746L37.4035 40.6716 66.4789 40.6716 66.4789 52.3627 37.4035 52.3627C36.3689 52.5727 35.5189 53.6555 35.4886 54.9768Z" fill="#29AFEA" fill-rule="evenodd" transform="matrix(1 0 0 1.00299 952 5)"></path>
    <path d="M66.4383 67.3424 66.4551 74.5669 54.1554 74.5669 54.1554 69.9491C58.2483 69.559 62.3241 68.8049 66.4383 67.3424Z" fill="#0096E3" fill-rule="evenodd" transform="matrix(1 0 0 1.00299 952 5)"></path>
    <path d="M54.1554 69.9491 54.1554 62.4131 59.5682 62.3952 66.4551 62.3952 66.4383 67.3596C62.3241 68.8217 58.2483 69.559 54.1554 69.9491Z" fill="#29AFEA" fill-rule="evenodd" transform="matrix(1 0 0 1.00299 952 5)"></path>
  </g>
</svg>
