<svg xmlns="http://www.w3.org/2000/svg" xml:space="preserve" style="fill-rule:evenodd;clip-rule:evenodd;stroke-linejoin:round;stroke-miterlimit:2" viewBox="0 0 4000 3000"><path d="M2924.77 1080.94q-9.303-38.454-29.383-70.17-37.41-59.093-102.881-91.403-65.469-32.31-148.795-32.31-85.875 0-150.495 35.286-64.62 35.285-99.905 99.905-35.286 64.62-35.286 153.897h-300.141q0-165.801 75.673-288.237Q2209.23 765.47 2342.295 698.3q133.066-67.17 305.668-67.17 175.152 0 307.793 65.47 132.64 65.47 206.187 179.404a453 453 0 0 1 27.849 49.699c-67.131 40.023-158.242 93.756-265.022 155.237" style="fill:#f2af0d"/><path d="M3189.79 925.706q45.698 95.202 45.698 210.48 0 97.78-37.411 192.158-37.411 94.379-131.365 209.163-93.953 114.784-263.154 278.034l-300.141 305.242v11.904h758.429v263.579h-1193.76v-227.869l604.532-592.629q86.727-87.576 144.544-155.597 57.818-68.02 86.726-131.789 28.91-63.77 28.909-136.042 0-38.207-8.029-71.397c106.78-61.481 197.891-115.214 265.022-155.237" style="fill:#e6611a"/><path d="M1444.1 1012.05h-13.604l-497.4 788.188v13.604h472.801c-20.565 5.545-40.32 10.353-59.186 14.367-225.346 47.937-465.526 2.36-701.165-62.03l703.325-1111.24h392.819v1037.56c-108.376 46.045-209.386 84.172-297.59 110.479v-790.929Z" style="fill:#f2af0d"/><path d="M1440.7 2073.17H609.999v-250.826l35.548-56.166c235.639 64.39 475.819 109.967 701.165 62.03 18.866-4.014 38.621-8.822 59.186-14.367h38.203v-10.863c88.204-26.307 189.214-64.434 297.59-110.479v121.342h222.767v259.329h-222.767v323.097H1440.7z" style="fill:#e6611a"/></svg>